<svg width="22" height="22" viewBox="0 0 22 22" fill="none" xmlns="http://www.w3.org/2000/svg">
<g id="game-icons:path-distance">
<path id="Vector" d="M3.97946 0.902344C2.60446 0.902344 1.22775 1.93359 1.22775 3.99609L3.97946 9.49609L6.72947 3.99609C6.72947 1.93359 5.35446 0.902344 3.97946 0.902344ZM16.1095 2.57812C15.8131 2.59059 15.5252 2.64688 15.2845 2.69844L15.4478 3.45469C15.6884 3.40098 15.9377 3.36703 16.1482 3.35156L16.1095 2.57812ZM3.97946 2.62109C4.74001 2.62109 5.35446 3.23684 5.35446 3.99609C5.35446 4.75664 4.74001 5.37109 3.97946 5.37109C3.22021 5.37109 2.60446 4.75664 2.60446 3.99609C2.60446 3.23684 3.22021 2.62109 3.97946 2.62109ZM16.9646 2.62969L16.8357 3.39023C17.0463 3.43449 17.2568 3.48992 17.4416 3.60078L17.8154 2.92188C17.5533 2.78223 17.2611 2.65676 16.9646 2.62969ZM14.4939 2.91758C14.2318 3.01984 13.9697 3.11137 13.7463 3.20117L14.0513 3.91016C14.2877 3.80961 14.5369 3.72195 14.7474 3.64805L14.4939 2.91758ZM18.5201 3.49336L17.9314 3.99609C18.0861 4.17313 18.2064 4.39141 18.3009 4.56758L18.9927 4.21953C18.8467 3.93809 18.7177 3.72496 18.5201 3.49336ZM13.0287 3.53203C12.7666 3.66566 12.5517 3.78469 12.3197 3.90156L12.6978 4.58047C12.9213 4.45156 13.1662 4.32695 13.3638 4.22813L13.0287 3.53203ZM11.6408 4.30117C11.4131 4.43438 11.1896 4.56758 10.9705 4.71367L11.3916 5.3582C11.6021 5.2207 11.8213 5.0918 12.0361 4.96289L11.6408 4.30117ZM19.2592 5.07031C19.0056 5.11328 18.7478 5.14336 18.4943 5.17344C18.5115 5.38828 18.4986 5.62031 18.4556 5.80078L19.2076 5.97695C19.2506 5.66758 19.2892 5.34961 19.2592 5.07031ZM10.3174 5.14336C10.1025 5.28945 9.89196 5.43984 9.67712 5.58594L10.124 6.21758C10.3302 6.06719 10.5408 5.92539 10.7513 5.7793L10.3174 5.14336ZM9.04548 6.05C8.83064 6.20469 8.6072 6.37656 8.42243 6.51836L8.89079 7.13281C9.12712 6.96094 9.2904 6.83203 9.50525 6.67305L9.04548 6.05ZM18.1978 6.39375C18.0689 6.59141 17.9185 6.78906 17.7681 6.93945L18.331 7.47656C18.5158 7.25742 18.7134 7.03398 18.851 6.81055L18.1978 6.39375ZM7.80798 6.99961C7.59743 7.16289 7.38689 7.33047 7.20212 7.48516L7.69197 8.08242C7.89392 7.91484 8.10017 7.74297 8.28923 7.60547L7.80798 6.99961ZM17.2353 7.43359C17.0377 7.59258 16.8314 7.74727 16.6424 7.87617L17.0849 8.51211C17.3127 8.35742 17.5361 8.18984 17.7295 8.03516L17.2353 7.43359ZM6.60486 7.98789C6.4029 8.15117 6.20954 8.32305 6.01189 8.49063L6.51462 9.0793C6.70798 8.91172 6.90134 8.74414 7.099 8.58086L6.60486 7.98789ZM16.0107 8.28867C15.7916 8.41758 15.5638 8.55078 15.3576 8.6625L15.7271 9.3457C15.9592 9.20391 16.2213 9.0793 16.4146 8.95039L16.0107 8.28867ZM5.42321 9.00195C5.22986 9.17383 5.04079 9.3457 4.84743 9.52188L5.36736 10.0977C5.55642 9.92578 5.74978 9.75391 5.93884 9.58203L5.42321 9.00195ZM14.683 9.01914C14.4552 9.13086 14.2275 9.24687 13.9998 9.35859L14.3306 10.0547C14.597 9.92578 14.7947 9.81836 15.0353 9.70664L14.683 9.01914ZM13.308 9.68086C13.0717 9.78828 12.8439 9.89141 12.6033 9.99023L12.917 10.6992C13.1533 10.5961 13.3896 10.4887 13.6259 10.3813L13.308 9.68086ZM4.28025 10.0547C4.06111 10.248 3.90857 10.3984 3.70876 10.5918L4.25446 11.1504C4.45642 10.957 4.6197 10.7895 4.80876 10.6262L4.28025 10.0547ZM11.8986 10.3039C11.6623 10.4027 11.4259 10.5059 11.1896 10.6047L11.4904 11.3223C11.731 11.2234 11.9674 11.1203 12.2037 11.0172L11.8986 10.3039ZM10.4763 10.9055C10.24 11.0086 10.0037 11.1117 9.76306 11.2062L10.0638 11.9238C10.3002 11.825 10.5408 11.7219 10.7771 11.623L10.4763 10.9055ZM18.417 11.2148C17.042 11.2148 15.667 12.2461 15.667 14.3086L18.417 19.8086L21.167 14.3086C21.167 12.2461 19.792 11.2148 18.417 11.2148ZM9.04978 11.507C8.80486 11.6187 8.54704 11.7219 8.3365 11.8121L8.64157 12.5254C8.89509 12.418 9.13572 12.3148 9.35056 12.2203L9.04978 11.507ZM7.62321 12.1172C7.39118 12.2246 7.12048 12.3449 6.91423 12.4395L7.2322 13.1441C7.48571 13.0324 7.70915 12.9207 7.93259 12.8262L7.62321 12.1172ZM6.20525 12.7617C5.96462 12.8777 5.7154 12.998 5.50056 13.1055L5.84861 13.7973C6.08064 13.677 6.32126 13.5652 6.53181 13.4621L6.20525 12.7617ZM18.417 12.9336C19.1775 12.9336 19.792 13.548 19.792 14.3086C19.792 15.0691 19.1775 15.6836 18.417 15.6836C17.6564 15.6836 17.042 15.0691 17.042 14.3086C17.042 13.548 17.6564 12.9336 18.417 12.9336ZM4.80446 13.4621C4.57673 13.5867 4.349 13.7156 4.11696 13.8488L4.50368 14.5191C4.72282 14.3902 4.94626 14.2699 5.1697 14.1496L4.80446 13.4621ZM3.44236 14.2656C3.2013 14.4031 2.96841 14.5879 2.76775 14.7211L3.23611 15.3398C3.44966 15.1852 3.67954 15.0262 3.86345 14.9145L3.44236 14.2656ZM2.15759 15.2367C1.95134 15.4258 1.7481 15.6449 1.5904 15.8297L2.17907 16.3324C2.3445 16.1305 2.48845 15.9801 2.68181 15.8082L2.15759 15.2367ZM11.5162 15.2926L11.5849 16.0617C11.8084 16.023 12.0318 16.0488 12.2552 16.0832L12.3884 15.3227C12.1049 15.2797 11.8041 15.2496 11.5162 15.2926ZM9.91775 15.7223L10.2099 16.4398C10.4334 16.341 10.6654 16.2637 10.9017 16.1906C10.8201 15.9457 10.7599 15.6965 10.6955 15.4473C10.4248 15.5246 10.1541 15.6277 9.91775 15.7223ZM13.2478 15.6836L12.8095 16.3195C12.99 16.4527 13.1662 16.5945 13.308 16.7707L13.8924 16.2637C13.6732 16.0402 13.5056 15.8297 13.2478 15.6836ZM9.18728 16.0703C8.95095 16.1906 8.72321 16.3281 8.49548 16.4613L8.8865 17.1273C9.10993 17.007 9.32907 16.8652 9.54821 16.7492L9.18728 16.0703ZM1.11818 16.543C0.98841 16.8223 0.883137 17.123 0.834152 17.3895L1.5947 17.5227C1.64111 17.2777 1.70771 17.1016 1.80525 16.891C1.56935 16.7879 1.34419 16.6633 1.11818 16.543ZM7.82517 16.8781C7.60603 17.0199 7.39118 17.1617 7.17634 17.3078L7.60603 17.9523C7.82087 17.8105 8.03142 17.6645 8.24626 17.5227L7.82517 16.8781ZM14.3865 16.9297L13.7377 17.3508C13.8752 17.557 14.0084 17.7719 14.133 17.991L14.8033 17.6043C14.6529 17.3637 14.5455 17.1488 14.3865 16.9297ZM6.53611 17.7461C6.32126 17.8879 6.10642 18.0254 5.89587 18.1758L6.32556 18.8203C6.53181 18.6699 6.75095 18.5281 6.97009 18.382L6.53611 17.7461ZM1.60329 18.1543C1.3545 18.2059 1.10357 18.2488 0.853488 18.2961C0.898605 18.5969 1.01935 18.8891 1.12849 19.1211L1.82673 18.7859C1.73349 18.5711 1.64497 18.3477 1.60329 18.1543ZM15.1857 18.2746L14.5154 18.6613C14.6486 18.8934 14.8033 19.1426 14.9279 19.3402L15.5767 18.9234C15.4306 18.6957 15.306 18.4809 15.1857 18.2746ZM5.25993 18.5969C5.04509 18.7301 4.83454 18.859 4.61111 18.9836L4.99353 19.6582C5.22126 19.525 5.449 19.3918 5.66814 19.25L5.25993 18.5969ZM2.19626 19.2973L1.66775 19.8645C1.90665 20.0922 2.20142 20.2426 2.52282 20.3113L2.6947 19.5594C2.50392 19.5207 2.3256 19.4262 2.19626 19.2973ZM3.95798 19.3102C3.74271 19.409 3.51927 19.4863 3.28767 19.5336L3.46384 20.2898C3.7397 20.234 3.99923 20.1309 4.25876 20.0234L3.95798 19.3102ZM16.0021 19.5164L15.4049 20.002C15.5896 20.2297 15.8174 20.4488 16.015 20.6035L16.492 19.9934C16.3029 19.8473 16.1396 19.6711 16.0021 19.5164ZM17.0377 20.2684L16.8443 21.0203C17.1838 21.0891 17.4373 21.1105 17.7552 21.0762L17.6607 20.307C17.4502 20.3414 17.2439 20.3199 17.0377 20.2684Z" fill="#281578"/>
</g>
</svg>
