<svg width="70" height="70" viewBox="0 0 70 70" fill="none" xmlns="http://www.w3.org/2000/svg">
<g id="gridicons:play">
<path id="Vector" d="M35.3535 6.46631C29.6758 6.46631 24.1256 8.14994 19.4048 11.3043C14.684 14.4586 11.0045 18.9421 8.83176 24.1875C6.659 29.4331 6.09051 35.205 7.19817 40.7736C8.30583 46.3422 11.0399 51.4573 15.0546 55.472C19.0694 59.4868 24.1844 62.2208 29.753 63.3285C35.3216 64.4362 41.0936 63.8677 46.3391 61.6949C51.5846 59.5222 56.068 55.8427 59.2224 51.1219C62.3767 46.4011 64.0604 40.8509 64.0604 35.1732C64.0604 31.4034 63.3178 27.6704 61.8752 24.1875C60.4325 20.7047 58.318 17.54 55.6523 14.8744C52.9866 12.2087 49.822 10.0941 46.3391 8.65149C42.8562 7.20883 39.1233 6.46631 35.3535 6.46631ZM29.6121 48.0913V22.2551L46.8362 35.1732L29.6121 48.0913Z" fill="white"/>
</g>
</svg>
