<svg width="16" height="18" viewBox="0 0 16 18" fill="none" xmlns="http://www.w3.org/2000/svg">
<g id="Group">
<path id="Vector" d="M10.7 0.666626H7.455C5.985 0.666626 4.82 0.666626 3.90917 0.789959C2.97083 0.916626 2.21167 1.18329 1.61333 1.78413C1.01417 2.38496 0.748333 3.14746 0.6225 4.08913C0.5 5.00413 0.5 6.17329 0.5 7.64913V12.5141C0.5 13.7708 1.26667 14.8475 2.35583 15.2991C2.3 14.5408 2.3 13.4783 2.3 12.5933V8.41829C2.3 7.35079 2.3 6.42996 2.39833 5.69329C2.50417 4.90329 2.7425 4.14663 3.35417 3.53246C3.96583 2.91829 4.72 2.67913 5.50667 2.57246C6.24 2.47413 7.15667 2.47413 8.22083 2.47413H10.7792C11.8425 2.47413 12.7575 2.47413 13.4917 2.57246C13.2717 2.0111 12.8877 1.52904 12.3897 1.18909C11.8917 0.849142 11.3029 0.667078 10.7 0.666626Z" fill="#281578"/>
<path id="Vector_2" d="M3.49994 8.49751C3.49994 6.22584 3.49994 5.09001 4.20327 4.38418C4.90577 3.67834 6.03661 3.67834 8.29994 3.67834H10.6999C12.9624 3.67834 14.0941 3.67834 14.7974 4.38418C15.4999 5.09001 15.4999 6.22584 15.4999 8.49751V12.5142C15.4999 14.7858 15.4999 15.9217 14.7974 16.6275C14.0941 17.3333 12.9624 17.3333 10.6999 17.3333H8.29994C6.03744 17.3333 4.90577 17.3333 4.20327 16.6275C3.49994 15.9217 3.49994 14.7858 3.49994 12.5142V8.49751Z" fill="#281578"/>
</g>
</svg>
