<svg width="15" height="15" viewBox="0 0 15 15" fill="none" xmlns="http://www.w3.org/2000/svg">
<g id="mdi:customer-service">
<path id="Vector" d="M11.7995 9.43596C12.0083 8.92894 12.1216 8.38613 12.1216 7.78964C12.1216 7.36017 12.056 6.94859 11.9427 6.56683C11.5549 6.65631 11.1493 6.70403 10.7258 6.70403C9.85851 6.70496 9.00368 6.49735 8.2334 6.09872C7.46312 5.70008 6.79997 5.1221 6.29986 4.4135C5.76486 5.70799 4.75561 6.74924 3.47845 7.32438C3.45459 7.4735 3.45459 7.63455 3.45459 7.78964C3.45459 8.35912 3.56676 8.92302 3.78469 9.44914C4.00262 9.97527 4.32204 10.4533 4.72472 10.856C5.53797 11.6693 6.64097 12.1261 7.79108 12.1261C8.4174 12.1261 9.01986 11.9889 9.56266 11.7444C9.90266 12.3946 10.0578 12.7167 10.0458 12.7167C9.06757 13.0447 8.31003 13.2058 7.79108 13.2058C6.34758 13.2058 4.96968 12.6391 3.95565 11.6191C3.33887 11.0042 2.88039 10.249 2.61951 9.41806H1.82617V6.70403H2.47635C2.67333 5.74517 3.12622 4.85753 3.78695 4.13529C4.44768 3.41305 5.29161 2.88314 6.22919 2.60181C7.16677 2.32048 8.16302 2.2982 9.11223 2.53736C10.0614 2.77651 10.9282 3.26817 11.6206 3.96017C12.3723 4.70891 12.885 5.6638 13.0939 6.70403H13.756V9.41806H13.7202L11.5967 11.3686L8.43529 11.0107V10.0146H11.3163L11.7995 9.43596ZM6.16266 7.65245C6.34161 7.65245 6.51459 7.72403 6.63986 7.85525C6.76574 7.98217 6.83638 8.15369 6.83638 8.33245C6.83638 8.51121 6.76574 8.68272 6.63986 8.80964C6.51459 8.9349 6.34161 9.00648 6.16266 9.00648C5.78687 9.00648 5.48266 8.70824 5.48266 8.33245C5.48266 7.95666 5.78687 7.65245 6.16266 7.65245ZM9.41354 7.65245C9.78933 7.65245 10.0876 7.95666 10.0876 8.33245C10.0876 8.70824 9.78933 9.00648 9.41354 9.00648C9.03775 9.00648 8.73354 8.70824 8.73354 8.33245C8.73354 8.1521 8.80518 7.97914 8.93271 7.85161C9.06023 7.72409 9.23319 7.65245 9.41354 7.65245Z" fill="white"/>
</g>
</svg>
