<svg width="29" height="28" viewBox="0 0 29 28" fill="none" xmlns="http://www.w3.org/2000/svg">
<g id="ph:eye-fill">
<path id="Vector" d="M27.6128 13.7083C27.5751 13.6233 26.6633 11.6005 24.6363 9.57348C21.9353 6.87252 18.5238 5.44507 14.769 5.44507C11.0141 5.44507 7.60266 6.87252 4.9017 9.57348C2.87463 11.6005 1.95852 13.6265 1.92515 13.7083C1.87619 13.8185 1.85088 13.9377 1.85088 14.0582C1.85088 14.1787 1.87619 14.2979 1.92515 14.4081C1.96283 14.4931 2.87463 16.5148 4.9017 18.5419C7.60266 21.2418 11.0141 22.6692 14.769 22.6692C18.5238 22.6692 21.9353 21.2418 24.6363 18.5419C26.6633 16.5148 27.5751 14.4931 27.6128 14.4081C27.6618 14.2979 27.6871 14.1787 27.6871 14.0582C27.6871 13.9377 27.6618 13.8185 27.6128 13.7083ZM14.769 18.3632C13.9173 18.3632 13.0848 18.1106 12.3767 17.6375C11.6685 17.1643 11.1166 16.4918 10.7907 15.705C10.4648 14.9182 10.3795 14.0524 10.5457 13.2171C10.7118 12.3818 11.1219 11.6145 11.7242 11.0123C12.3264 10.4101 13.0936 9.99999 13.9289 9.83384C14.7642 9.66769 15.63 9.75297 16.4168 10.0789C17.2037 10.4048 17.8762 10.9567 18.3493 11.6648C18.8225 12.373 19.075 13.2055 19.075 14.0571C19.075 15.1992 18.6213 16.2944 17.8138 17.102C17.0063 17.9095 15.911 18.3632 14.769 18.3632Z" fill="#F2F7FB"/>
</g>
</svg>
