<svg width="50" height="50" viewBox="0 0 50 50" fill="none" xmlns="http://www.w3.org/2000/svg">
<g id="ph:star">
<path id="Vector" d="M46.7193 19.0016C46.53 18.4183 46.1734 17.9037 45.6938 17.5216C45.2142 17.1396 44.6328 16.9071 44.022 16.8531L32.4224 15.8531L27.8755 5.04063C27.6388 4.47327 27.2395 3.98865 26.7279 3.64777C26.2163 3.30689 25.6153 3.125 25.0005 3.125C24.3858 3.125 23.7848 3.30689 23.2732 3.64777C22.7616 3.98865 22.3623 4.47327 22.1255 5.04063L17.5923 15.8531L5.97905 16.859C5.36584 16.9105 4.78149 17.1419 4.29928 17.5243C3.81707 17.9066 3.45847 18.4227 3.26845 19.008C3.07842 19.5933 3.06543 20.2217 3.23111 20.8144C3.39679 21.407 3.73375 21.9375 4.19975 22.3395L13.0103 30.0387L10.3697 41.4723C10.23 42.0706 10.2699 42.6968 10.4842 43.2726C10.6986 43.8484 11.0779 44.3483 11.5747 44.7097C12.0716 45.0711 12.664 45.278 13.2778 45.3045C13.8917 45.3311 14.4997 45.1761 15.0259 44.859L24.9869 38.8043L34.9693 44.859C35.4955 45.1761 36.1035 45.3311 36.7174 45.3045C37.3312 45.278 37.9236 45.0711 38.4205 44.7097C38.9173 44.3483 39.2966 43.8484 39.511 43.2726C39.7253 42.6968 39.7652 42.0706 39.6255 41.4723L36.9869 30.027L45.7955 22.3395C46.2614 21.9362 46.5977 21.4041 46.7621 20.8102C46.9264 20.2163 46.9116 19.587 46.7193 19.0016ZM43.7466 19.9781L34.938 27.6656C34.5093 28.0385 34.1904 28.5213 34.0156 29.0619C33.8408 29.6026 33.8166 30.1807 33.9458 30.734L36.5923 42.1871L26.6177 36.1324C26.1311 35.8361 25.5723 35.6793 25.0025 35.6793C24.4327 35.6793 23.8739 35.8361 23.3873 36.1324L13.4263 42.1871L16.0552 30.7418C16.1844 30.1885 16.1603 29.6104 15.9855 29.0697C15.8107 28.5291 15.4917 28.0464 15.063 27.6734L6.25053 19.9898C6.24982 19.984 6.24982 19.9781 6.25053 19.9723L17.8599 18.9684C18.4267 18.9184 18.9691 18.7146 19.4286 18.379C19.8881 18.0435 20.2473 17.5888 20.4673 17.0641L25.0005 6.26524L29.5318 17.0641C29.7518 17.5888 30.111 18.0435 30.5705 18.379C31.03 18.7146 31.5724 18.9184 32.1392 18.9684L43.7505 19.9723V19.9859L43.7466 19.9781Z" fill="black"/>
</g>
</svg>
