<svg width="14" height="14" viewBox="0 0 14 14" fill="none" xmlns="http://www.w3.org/2000/svg">
<g id="ri:bookmark-line">
<path id="Vector" d="M2.91666 1.16675H11.0833C11.238 1.16675 11.3864 1.22821 11.4958 1.3376C11.6052 1.447 11.6667 1.59537 11.6667 1.75008V12.9168C11.6667 12.969 11.6528 13.0202 11.6264 13.0651C11.5999 13.1101 11.5619 13.1471 11.5162 13.1724C11.4706 13.1976 11.419 13.2102 11.3669 13.2088C11.3148 13.2073 11.264 13.1919 11.2198 13.1642L6.99999 10.5176L2.78016 13.1636C2.73604 13.1913 2.6853 13.2067 2.63322 13.2082C2.58114 13.2096 2.52961 13.1971 2.484 13.1719C2.43839 13.1467 2.40036 13.1098 2.37386 13.0649C2.34736 13.0201 2.33337 12.9689 2.33333 12.9168V1.75008C2.33333 1.59537 2.39479 1.447 2.50418 1.3376C2.61358 1.22821 2.76195 1.16675 2.91666 1.16675ZM10.5 2.33341H3.49999V11.3354L6.99999 9.1415L10.5 11.3354V2.33341Z" fill="#7D23E0"/>
</g>
</svg>
